<svg xmlns="http://www.w3.org/2000/svg" xmlns:svg="http://www.w3.org/2000/svg" id="svg2383" width="64" height="64"><metadata id="metadata2388"/><g id="layer1"><path style="fill:#f60;stroke:#ff0;stroke-width:2.08800006;stroke-miterlimit:4;stroke-dasharray:none" id="path3179" d="M 36,18.909091 L 25.953199,20.725126 L 29.359087,27.931574 L 19.382087,25.764628 L 19.77093,33.725895 L 11.382638,27.905865 L 8.6952365,35.40992 L 3.1726944,26.822853 L -2.1818183,32.727272 L -3.9978536,22.680471 L -11.204302,26.08636 L -9.0373552,16.10936 L -16.998622,16.498202 L -11.178592,8.1099103 L -18.682648,5.422509 L -10.09558,-0.1000331 L -16,-5.4545458 L -5.9531986,-7.2705811 L -9.3590875,-14.477029 L 0.61791295,-12.310083 L 0.22907026,-20.27135 L 8.6173622,-14.45132 L 11.304764,-21.955375 L 16.827306,-13.368308 L 22.181818,-19.272727 L 23.997854,-9.2259261 L 31.204302,-12.631815 L 29.037355,-2.6548145 L 36.998622,-3.0436572 L 31.178592,5.3446348 L 38.682648,8.032036 L 30.09558,13.554578 L 36,18.909091 z" transform="translate(21.636364,25.454545)"/><rect style="fill:#b3b3b3;stroke:none;stroke-width:2.08800006;stroke-miterlimit:4;stroke-dasharray:none" id="rect3167" width="7.091" height="5.636" x="27.818" y="48" ry=".789"/><rect style="fill:#b3b3b3;stroke:#000;stroke-width:.40000000000000002;stroke-miterlimit:4;stroke-dasharray:none" id="rect2395" width="38" height="34.727" x="12.364" y="15.455" ry="4"/><rect style="fill:#000;stroke:none;stroke-width:2.08800006;stroke-miterlimit:4;stroke-dasharray:none" id="rect2393" width="32.727" height="26.545" x="15" y="19.273" ry="2.143"/><rect style="fill:#b3b3b3;stroke:none;stroke-width:2.08800006;stroke-miterlimit:4;stroke-dasharray:none" id="rect3169" width="23.818" height="2.909" x="19.455" y="52.909" ry="1.364"/><text xml:space="preserve" style="font-size:5.62832212px;font-style:normal;font-weight:400;fill:#000;fill-opacity:1;stroke:none;stroke-width:1px;stroke-linecap:butt;stroke-linejoin:miter;stroke-opacity:1;font-family:Bitstream Vera Sans" id="text3175" x="19.061" y="24.339" transform="scale(0.9055782,1.1042668)"><tspan id="tspan3177" x="19.061" y="24.339" style="fill:#fff">$&gt;_</tspan></text></g></svg>