<svg xmlns="http://www.w3.org/2000/svg" xmlns:svg="http://www.w3.org/2000/svg" id="svg2" width="48" height="48" version="1.1"><title id="title4328">cbp2make logo</title><metadata id="metadata7"/><g id="layer1" transform="translate(-302.15785,-607.39826)"><g id="g4271"><g id="g4200"><path style="fill:#f60;fill-opacity:1;stroke:#000;stroke-width:1;stroke-miterlimit:4;stroke-dasharray:none" id="rect4269" d="m 333.65785,637.25345 4.52254,0 4.92727,3.83336 6.55019,0 0,8.53702 -6.55019,0 -6.8838,2.55557 -2.56601,0 0,-14.92595 z"/><rect style="fill:#803300;stroke:#000;stroke-width:1;stroke-miterlimit:4;stroke-dasharray:none" id="rect3396" width="13" height="44" x="320.658" y="610.898"/></g><g id="g4265"><path style="fill:#0f0;stroke:#000;stroke-width:.99999982;stroke-linecap:butt;stroke-linejoin:miter;stroke-miterlimit:4;stroke-opacity:1" id="rect3335" d="m 326.65785,607.89825 12,0 2.75,2 2.75,0 2.75,-2 2.75,0 0,11 -23,0 0,-11 z"/><path style="fill:red;stroke:#000;stroke-width:.99999982;stroke-linecap:butt;stroke-linejoin:miter;stroke-miterlimit:4;stroke-opacity:1;stroke-dasharray:none" id="rect3335-8" d="m 326.65785,607.89826 0,11 -23.99999,0 0,-2.75 17.25,-8.25 6.74999,0 z"/><path style="fill:#4f00a0;fill-opacity:1;stroke:#000;stroke-width:.99999982;stroke-linecap:butt;stroke-linejoin:miter;stroke-miterlimit:4;stroke-opacity:1" id="rect3335-3" d="m 326.65785,618.89789 23,0 0,11 -2.875,0 -2.875,-2 -2.875,0 -2.875,2 -11.5,0 0,-11 z"/><path style="fill:#ff0;stroke:#000;stroke-width:.99999982;stroke-linecap:butt;stroke-linejoin:miter;stroke-miterlimit:4;stroke-opacity:1" id="rect3335-8-4" d="m 302.65785,618.89789 24,0 0,11 -7.5,0 -16.5,-8.25 0,-2.75 z"/></g><g id="g3713" transform="translate(1.0003503,0)"><path style="fill:#f60;fill-opacity:1;stroke:#000;stroke-width:9.66477585;stroke-miterlimit:4;stroke-dasharray:none" id="path4176-70" d="m 181.44597,575.06097 c 0,11.35383 -9.60427,20.55792 -21.45174,20.55792 -11.84747,0 -21.45174,-9.20409 -21.45174,-20.55792 0,-11.35382 9.60427,-20.55791 21.45174,-20.55791 11.84747,0 21.45174,9.20409 21.45174,20.55791 z" transform="matrix(0.10233756,0,0,0.10461197,302.87426,590.29059)"/><path style="fill:#f60;fill-opacity:1;stroke:#000;stroke-width:7.6512804;stroke-miterlimit:4;stroke-dasharray:none" id="path4176" d="m 181.44597,575.06097 c 0,11.35383 -9.60427,20.55792 -21.45174,20.55792 -11.84747,0 -21.45174,-9.20409 -21.45174,-20.55792 0,-11.35382 9.60427,-20.55791 21.45174,-20.55791 11.84747,0 21.45174,9.20409 21.45174,20.55791 z" transform="matrix(0.1292685,0,0,0.13214144,297.98775,560.38371)"/><path style="fill:#f60;fill-opacity:1;stroke:#000;stroke-width:6.33209419;stroke-miterlimit:4;stroke-dasharray:none" id="path4176-7" d="m 181.44597,575.06097 c 0,11.35383 -9.60427,20.55792 -21.45174,20.55792 -11.84747,0 -21.45174,-9.20409 -21.45174,-20.55792 0,-11.35382 9.60427,-20.55791 21.45174,-20.55791 11.84747,0 21.45174,9.20409 21.45174,20.55791 z" transform="matrix(0.15619944,0,0,0.1596709,293.10124,549.64612)"/><path style="fill:#f60;fill-opacity:1;stroke:#000;stroke-width:7.6512804;stroke-miterlimit:4;stroke-dasharray:none" id="path4176-0" d="m 181.44597,575.06097 c 0,11.35383 -9.60427,20.55792 -21.45174,20.55792 -11.84747,0 -21.45174,-9.20409 -21.45174,-20.55792 0,-11.35382 9.60427,-20.55791 21.45174,-20.55791 11.84747,0 21.45174,9.20409 21.45174,20.55791 z" transform="matrix(0.1292685,0,0,0.13214144,297.98775,570.57078)"/><path style="fill:#f60;fill-opacity:1;stroke:#000;stroke-width:5.40090418;stroke-miterlimit:4;stroke-dasharray:none" id="path4176-70-7" d="m 181.44597,575.06097 c 0,11.35383 -9.60427,20.55792 -21.45174,20.55792 -11.84747,0 -21.45174,-9.20409 -21.45174,-20.55792 0,-11.35382 9.60427,-20.55791 21.45174,-20.55791 11.84747,0 21.45174,9.20409 21.45174,20.55791 z" transform="matrix(0.18313037,0,0,0.18720037,304.3389,529.36035)"/></g></g></g></svg>